#Comment line ignore any data following # character 
#Hierarchical Translation and Rotation (.htr) file 
[Header]	
#Header keywords are followed by a single value 
FileType HTR		#Single word string
DataType HTRS		#Translation followed by rotation and scale data
FileVersion 1		#integer
NumSegments 64		#integer
NumFrames 3		#integer
DataFrameRate 30		#integer, data frame rate in this file
EulerRotationOrder ZYX
CalibrationUnits mm
RotationUnits Degrees
GlobalAxisofGravity Y
BoneLengthAxis Y
ScaleFactor 1.00
[SegmentNames&Hierarchy]
#CHILD	PARENT
Pinger_Root GLOBAL
Pelvis Pinger_Root
L_Hip Pelvis
R_Hip Pelvis
Rear_Leg01 Pelvis
Spine1 Pelvis
L_Leg01 L_Hip
L_Leg02 L_Leg01
L_Leg03 L_Leg02
L_Foot L_Leg03
L_Toe1_01 L_Foot
L_Toe2_01 L_Foot
L_Toe3_01 L_Foot
planeAlignerLeft L_Foot
L_Toe1_02 L_Toe1_01
L_Toe1_03 L_Toe1_02
L_Toe2_02 L_Toe2_01
L_Toe2_03 L_Toe2_02
L_Toe3_02 L_Toe3_01
L_Toe3_03 L_Toe3_02
planeLockWeightLeft planeAlignerLeft
R_Leg01 R_Hip
R_Leg02 R_Leg01
R_Leg03 R_Leg02
R_Foot R_Leg03
planeAlignerRight R_Foot
R_Toe1_01 R_Foot
R_Toe2_01 R_Foot
R_Toe3_01 R_Foot
planeLockWeightRight planeAlignerRight
R_Toe1_02 R_Toe1_01
R_Toe1_03 R_Toe1_02
R_Toe2_02 R_Toe2_01
R_Toe2_03 R_Toe2_02
R_Toe3_02 R_Toe3_01
R_Toe3_03 R_Toe3_02
Rear_Leg02 Rear_Leg01
Rear_Leg03 Rear_Leg02
Rear_Leg04 Rear_Leg03
Rear_Foot Rear_Leg04
planeAlignerCenter Rear_Foot
Rear_Toe1_01 Rear_Foot
Rear_Toe2_01 Rear_Foot
Rear_Toe3_01 Rear_Foot
planeLockWeightCenter planeAlignerCenter
Rear_Toe1_02 Rear_Toe1_01
Rear_Toe1_03 Rear_Toe1_02
Rear_Toe2_02 Rear_Toe2_01
Rear_Toe2_03 Rear_Toe2_02
Rear_Toe3_02 Rear_Toe3_01
Rear_Toe3_03 Rear_Toe3_02
Back_Bone Spine1
Head Spine1
Motor_Bone Back_Bone
Ping_Mechanism Back_Bone
BN_LookIK Head
bottomMouth Head
L_Mouth01 Head
L_mouthFront Head
mouthGun Head
R_Mouth01 Head
R_mouthFront Head
TopMouth Head
weapon_bone Head
[BasePosition]
#SegmentName Tx, Ty, Tz, Rx, Ry, Rz, BoneLength
Pinger_Root 0.000000 0.000000 0.000000 -90.000000 0.000000 0.000000 10.000000 
Pelvis 0.000000 0.000000 0.000000 0.000000 0.000000 0.000000 10.000000 
L_Hip 0.000000 0.000000 0.000000 0.000000 0.000000 0.000000 10.000000 
R_Hip 0.000000 0.000000 0.000000 0.000000 0.000000 0.000000 10.000000 
Rear_Leg01 0.000000 0.000000 0.000000 0.000000 0.000000 0.000000 10.000000 
Spine1 0.000000 0.000000 0.000000 0.000000 0.000000 0.000000 10.000000 
L_Leg01 0.000000 0.000000 0.000000 0.000000 0.000000 0.000000 10.000000 
L_Leg02 0.000000 0.000000 0.000000 0.000000 0.000000 0.000000 10.000000 
L_Leg03 0.000000 0.000000 0.000000 0.000000 0.000000 0.000000 10.000000 
L_Foot 0.000000 0.000000 0.000000 0.000000 0.000000 0.000000 10.000000 
L_Toe1_01 0.000000 0.000000 0.000000 0.000000 0.000000 0.000000 10.000000 
L_Toe2_01 0.000000 0.000000 0.000000 0.000000 0.000000 0.000000 10.000000 
L_Toe3_01 0.000000 0.000000 0.000000 0.000000 0.000000 0.000000 10.000000 
planeAlignerLeft 0.000000 0.000000 0.000000 0.000000 0.000000 0.000000 10.000000 
L_Toe1_02 0.000000 0.000000 0.000000 0.000000 0.000000 0.000000 10.000000 
L_Toe1_03 0.000000 0.000000 0.000000 0.000000 0.000000 0.000000 10.000000 
L_Toe2_02 0.000000 0.000000 0.000000 0.000000 0.000000 0.000000 10.000000 
L_Toe2_03 0.000000 0.000000 0.000000 0.000000 0.000000 0.000000 10.000000 
L_Toe3_02 0.000000 0.000000 0.000000 0.000000 0.000000 0.000000 10.000000 
L_Toe3_03 0.000000 0.000000 0.000000 0.000000 0.000000 0.000000 10.000000 
planeLockWeightLeft 0.000000 0.000000 0.000000 0.000000 0.000000 0.000000 10.000000 
R_Leg01 0.000000 0.000000 0.000000 0.000000 0.000000 0.000000 10.000000 
R_Leg02 0.000000 0.000000 0.000000 0.000000 0.000000 0.000000 10.000000 
R_Leg03 0.000000 0.000000 0.000000 0.000000 0.000000 0.000000 10.000000 
R_Foot 0.000000 0.000000 0.000000 0.000000 0.000000 0.000000 10.000000 
planeAlignerRight 0.000000 0.000000 0.000000 0.000000 0.000000 0.000000 10.000000 
R_Toe1_01 0.000000 0.000000 0.000000 0.000000 0.000000 0.000000 10.000000 
R_Toe2_01 0.000000 0.000000 0.000000 0.000000 0.000000 0.000000 10.000000 
R_Toe3_01 0.000000 0.000000 0.000000 0.000000 0.000000 0.000000 10.000000 
planeLockWeightRight 0.000000 0.000000 0.000000 0.000000 0.000000 0.000000 10.000000 
R_Toe1_02 0.000000 0.000000 0.000000 0.000000 0.000000 0.000000 10.000000 
R_Toe1_03 0.000000 0.000000 0.000000 0.000000 0.000000 0.000000 10.000000 
R_Toe2_02 0.000000 0.000000 0.000000 0.000000 0.000000 0.000000 10.000000 
R_Toe2_03 0.000000 0.000000 0.000000 0.000000 0.000000 0.000000 10.000000 
R_Toe3_02 0.000000 0.000000 0.000000 0.000000 0.000000 0.000000 10.000000 
R_Toe3_03 0.000000 0.000000 0.000000 0.000000 0.000000 0.000000 10.000000 
Rear_Leg02 0.000000 0.000000 0.000000 0.000000 0.000000 0.000000 10.000000 
Rear_Leg03 0.000000 0.000000 0.000000 0.000000 0.000000 0.000000 10.000000 
Rear_Leg04 0.000000 0.000000 0.000000 0.000000 0.000000 0.000000 10.000000 
Rear_Foot 0.000000 0.000000 0.000000 0.000000 0.000000 0.000000 10.000000 
planeAlignerCenter 0.000000 0.000000 0.000000 0.000000 0.000000 0.000000 10.000000 
Rear_Toe1_01 0.000000 0.000000 0.000000 0.000000 0.000000 0.000000 10.000000 
Rear_Toe2_01 0.000000 0.000000 0.000000 0.000000 0.000000 0.000000 10.000000 
Rear_Toe3_01 0.000000 0.000000 0.000000 0.000000 0.000000 0.000000 10.000000 
planeLockWeightCenter 0.000000 0.000000 0.000000 0.000000 0.000000 0.000000 10.000000 
Rear_Toe1_02 0.000000 0.000000 0.000000 0.000000 0.000000 0.000000 10.000000 
Rear_Toe1_03 0.000000 0.000000 0.000000 0.000000 0.000000 0.000000 10.000000 
Rear_Toe2_02 0.000000 0.000000 0.000000 0.000000 0.000000 0.000000 10.000000 
Rear_Toe2_03 0.000000 0.000000 0.000000 0.000000 0.000000 0.000000 10.000000 
Rear_Toe3_02 0.000000 0.000000 0.000000 0.000000 0.000000 0.000000 10.000000 
Rear_Toe3_03 0.000000 0.000000 0.000000 0.000000 0.000000 0.000000 10.000000 
Back_Bone 0.000000 0.000000 0.000000 0.000000 0.000000 0.000000 10.000000 
Head 0.000000 0.000000 0.000000 0.000000 0.000000 0.000000 10.000000 
Motor_Bone 0.000000 0.000000 0.000000 0.000000 0.000000 0.000000 10.000000 
Ping_Mechanism 0.000000 0.000000 0.000000 0.000000 0.000000 0.000000 10.000000 
BN_LookIK 0.000000 0.000000 0.000000 0.000000 0.000000 0.000000 10.000000 
bottomMouth 0.000000 0.000000 0.000000 0.000000 0.000000 0.000000 10.000000 
L_Mouth01 0.000000 0.000000 0.000000 0.000000 0.000000 0.000000 10.000000 
L_mouthFront 0.000000 0.000000 0.000000 0.000000 0.000000 0.000000 10.000000 
mouthGun 0.000000 0.000000 0.000000 0.000000 0.000000 0.000000 10.000000 
R_Mouth01 0.000000 0.000000 0.000000 0.000000 0.000000 0.000000 10.000000 
R_mouthFront 0.000000 0.000000 0.000000 0.000000 0.000000 0.000000 10.000000 
TopMouth 0.000000 0.000000 0.000000 0.000000 0.000000 0.000000 10.000000 
weapon_bone 0.000000 0.000000 0.000000 0.000000 0.000000 0.000000 10.000000 
#Beginning of Data. Separated by tabs
#Fr	Tx	Ty	Tz	Rx	Ry	Rz	SF
[Pinger_Root]
21 -2592.592285 0.000000 0.000000 -0.000075 -0.000000 -0.000020 2592.592285
22 -2722.222168 0.000000 0.000000 -0.000075 -0.000000 -0.000020 2722.222168
23 -2851.851563 0.000000 0.000000 -0.000075 -0.000000 -0.000020 2851.851318
[Pelvis]
21 -503.017487 -314.154449 4960.621582 39.266304 -73.414474 16.587166 4995.946777
22 -472.189972 -279.644989 4964.561523 35.897823 -71.636131 21.549232 4994.800781
23 -454.088989 -237.801285 4971.584473 34.998714 -70.812027 24.049917 4997.938965
[L_Hip]
21 5.766392 125.831482 872.656799 -178.250168 -81.786369 87.376007 881.701050
22 5.766392 125.831482 872.656799 -178.250168 -81.786369 87.376007 881.701050
23 5.766392 125.831482 872.656799 -178.250168 -81.786369 87.376007 881.701050
[R_Hip]
21 5.765438 125.836372 -872.654907 -1.748770 81.786041 87.376961 881.699829
22 5.765438 125.836372 -872.654907 -1.748770 81.786041 87.376961 881.699829
23 5.765438 125.836372 -872.654907 -1.748770 81.786041 87.376961 881.699829
[Rear_Leg01]
21 -192.298416 -925.602966 -0.001907 -167.883453 27.006994 -162.036453 945.367432
22 -192.298416 -925.602966 -0.001907 -163.339020 28.004284 -156.374634 945.367432
23 -192.298416 -925.602966 -0.001907 -159.874329 27.986902 -152.721268 945.367432
[Spine1]
21 290.604584 5.007505 0.000477 -46.505428 7.743638 29.356344 290.647736
22 290.604584 5.007505 0.000477 -49.170551 6.406459 28.936043 290.647736
23 290.604584 5.007505 0.000477 -51.343716 6.198118 28.565645 290.647736
[L_Leg01]
21 761.932007 -0.002384 -0.069261 72.847733 19.426731 -109.505844 761.932068
22 761.932007 -0.002384 -0.069261 73.299141 20.744886 -111.605385 761.932068
23 761.932007 -0.002384 -0.069261 74.032059 22.466513 -112.612770 761.932068
[L_Leg02]
21 1441.140503 -0.000954 -0.000715 -1.307920 0.826744 -75.911179 1441.140503
22 1441.140503 -0.000954 -0.000715 -1.286611 0.847801 -72.799637 1441.140503
23 1441.140503 -0.000954 -0.000715 -1.268751 0.864021 -70.106735 1441.140503
[L_Leg03]
21 1686.963989 -0.000715 -0.000954 0.110797 -0.009489 80.470306 1686.963989
22 1686.963989 -0.000715 -0.000954 0.116861 -0.008155 78.497253 1686.963989
23 1686.963989 -0.000715 -0.000954 0.122874 -0.006615 76.524773 1686.963989
[L_Foot]
21 3041.570068 -30.715107 11.297464 0.237910 8.359026 96.580681 3041.746094
22 3041.570068 -30.715107 11.297464 -0.060913 7.474511 96.816696 3041.746094
23 3041.570068 -30.715107 11.297464 -0.114168 6.916178 97.531960 3041.746094
[L_Toe1_01]
21 -188.216690 -224.732346 -21.137953 88.910141 -1.633956 -149.307632 293.899567
22 -188.216690 -224.732346 -21.137953 88.870903 -1.610856 -148.123322 293.899567
23 -188.216690 -224.732346 -21.137953 88.832138 -1.586948 -146.939041 293.899567
[L_Toe2_01]
21 200.746536 -219.926590 148.838394 -75.243690 -11.140184 -56.477627 332.896027
22 200.746536 -219.926590 148.838394 -75.076828 -10.909990 -57.432602 332.896027
23 200.746536 -219.926590 148.838394 -74.913994 -10.677093 -58.386131 332.896027
[L_Toe3_01]
21 188.832520 -219.859131 -191.078659 -109.095573 13.708111 -58.418007 347.140900
22 188.832520 -219.859131 -191.078659 -109.280197 13.439314 -59.276535 347.140900
23 188.832520 -219.859131 -191.078659 -109.460464 13.167850 -60.133251 347.140900
[planeAlignerLeft]
21 -75.550453 -769.315002 -0.015564 0.000000 -90.000000 -90.001900 773.015808
22 -76.928520 -782.140442 -0.018158 0.000000 -90.000000 -90.001900 785.914490
23 -78.306572 -794.965820 -0.020752 0.000000 -90.000000 -90.001900 798.813232
[L_Toe1_02]
21 413.761139 0.000477 0.000000 0.001385 -25.904909 0.001385 413.761139
22 413.761139 0.000477 0.000000 0.001385 -25.873014 0.001385 413.761139
23 413.761139 0.000477 0.000000 0.001385 -25.841122 0.001385 413.761139
[L_Toe1_03]
21 464.317322 0.000358 -0.000089 0.003785 53.859913 0.003785 464.317322
22 464.317322 0.000358 -0.000089 0.003546 51.347614 0.003546 464.317322
23 464.317322 0.000358 -0.000089 0.003366 49.189697 0.003366 464.317322
[L_Toe2_02]
21 342.235809 -0.000477 0.000238 0.001183 -75.945717 0.001183 342.235809
22 342.235809 -0.000477 0.000238 0.001183 -75.544601 0.001183 342.235809
23 342.235809 -0.000477 0.000238 0.001184 -75.143585 0.001184 342.235809
[L_Toe2_03]
21 420.210846 -0.000715 0.000000 -179.990646 84.064095 -179.987152 420.210846
22 420.210846 -0.000715 0.000000 -179.986557 85.665146 -179.983047 420.210846
23 420.210846 -0.000715 0.000000 -179.981018 86.822693 -179.977524 420.210846
[L_Toe3_02]
21 329.270111 0.000954 0.000000 0.001178 -79.683517 0.001178 329.270111
22 329.270111 0.000954 0.000000 0.001179 -79.312164 0.001179 329.270111
23 329.270111 0.000954 0.000000 0.001179 -78.940842 0.001179 329.270111
[L_Toe3_03]
21 439.137451 -0.001907 0.000954 -179.993744 81.777245 -179.990219 439.137451
22 439.137451 -0.001907 0.000954 -179.991959 83.267189 -179.988464 439.137451
23 439.137451 -0.001907 0.000954 -179.990097 84.348335 -179.986588 439.137451
[planeLockWeightLeft]
21 999.998840 0.097979 0.076223 -0.011826 -0.004376 0.005620 999.998901
22 999.998840 0.097976 0.076214 -0.011826 -0.004376 0.005620 999.998901
23 999.998901 0.097973 0.076205 -0.011826 -0.004376 0.005620 999.998962
[R_Leg01]
21 761.455627 -0.001907 -0.000358 91.158592 -35.331150 65.026535 761.455688
22 761.455627 -0.001907 -0.000358 92.295921 -31.458458 66.748650 761.455688
23 761.455627 -0.001907 -0.000358 94.412865 -28.878830 69.319908 761.455688
[R_Leg02]
21 1441.140625 0.000000 -0.000238 -1.178843 -0.507779 -145.146454 1441.140625
22 1441.140625 0.000000 -0.000238 -1.169945 -0.538698 -134.879669 1441.140625
23 1441.140625 0.000000 -0.000238 -1.029387 -0.371966 -120.691139 1441.140625
[R_Leg03]
21 1686.963989 0.000954 0.001431 0.110125 -0.067188 140.322205 1686.963989
22 1686.963989 0.000954 0.001431 0.121199 -0.075742 142.773529 1686.963989
23 1686.963989 0.000954 0.001431 0.110030 -0.067345 140.485168 1686.963989
[R_Foot]
21 3041.560059 -30.531288 -11.204481 0.982727 -41.031700 50.441284 3041.734131
22 3041.560059 -30.531288 -11.204481 -10.142348 -41.235401 51.502426 3041.734131
23 3041.560059 -30.531288 -11.204481 -19.318605 -39.512066 49.898548 3041.734131
[planeAlignerRight]
21 -225.287262 -800.507385 12.280478 0.000000 -89.960434 -90.005180 831.695374
22 -227.607315 -799.334045 11.290998 0.000000 -89.960434 -90.005180 831.184387
23 -229.927353 -798.160645 10.301517 0.000000 -89.960434 -90.005180 830.682312
[R_Toe1_01]
21 -188.383347 -224.864899 21.052242 91.294899 0.979210 -145.238052 294.101532
22 -188.383347 -224.864899 21.052242 91.264816 1.056777 -145.417068 294.101532
23 -188.383347 -224.864899 21.052242 91.242317 1.169585 -145.360825 294.101532
[R_Toe2_01]
21 200.637817 -220.002121 -148.787384 -107.620598 7.262892 -82.732986 332.857574
22 200.637817 -220.002121 -148.787384 -107.608147 7.853120 -82.112045 332.857574
23 200.637817 -220.002121 -148.787384 -107.569603 8.489105 -81.084557 332.857574
[R_Toe3_01]
21 188.606735 -220.092957 191.126343 -67.217407 -9.822545 -84.186905 347.192566
22 188.606735 -220.092957 191.126343 -67.273003 -10.256702 -83.368370 347.192566
23 188.606735 -220.092957 191.126343 -67.334969 -10.690029 -82.548241 347.192566
[planeLockWeightRight]
21 -0.000153 -0.000305 0.076447 -0.011823 -0.004379 -0.000027 0.076447
22 103.999733 -0.000610 0.076447 -0.011823 -0.004379 -0.000027 103.999763
23 351.998871 -0.000000 0.076523 -0.011823 -0.004379 -0.000027 351.998871
[R_Toe1_02]
21 413.762085 0.000477 -0.000119 0.001401 -23.835276 0.001401 413.762085
22 413.762085 0.000477 -0.000119 0.001398 -24.236637 0.001398 413.762085
23 413.762085 0.000477 -0.000119 0.001394 -24.637981 0.001394 413.762085
[R_Toe1_03]
21 464.317810 0.000000 0.001088 0.008656 74.412094 0.008656 464.317810
22 464.317810 0.000000 0.001088 0.007575 72.173409 0.007575 464.317810
23 464.317810 0.000000 0.001088 0.006604 69.521332 0.006604 464.317810
[R_Toe2_02]
21 342.234741 -0.000954 0.000238 -0.002331 -80.445084 -0.002331 342.234741
22 342.234741 -0.000954 0.000238 -0.002331 -80.525993 -0.002331 342.234741
23 342.234741 -0.000954 0.000238 -0.002331 -80.606941 -0.002331 342.234741
[R_Toe2_03]
21 420.210846 0.000715 -0.000268 -179.996201 56.167755 -179.999863 420.210846
22 420.210846 0.000715 -0.000268 -179.996231 55.377346 -179.999893 420.210846
23 420.210846 0.000715 -0.000268 -179.996246 55.098431 -179.999908 420.210846
[R_Toe3_02]
21 329.270355 -0.000477 -0.000954 0.001175 -84.125336 0.001175 329.270355
22 329.270355 -0.000477 -0.000954 0.001175 -84.228912 0.001175 329.270355
23 329.270355 -0.000477 -0.000954 0.001175 -84.332474 0.001175 329.270355
[R_Toe3_03]
21 439.137939 0.000238 0.001431 -179.995834 55.457039 -179.988525 439.137939
22 439.137939 0.000238 0.001431 -179.996017 54.652451 -179.988678 439.137939
23 439.137939 0.000238 0.001431 -179.996094 54.316174 -179.988754 439.137939
[Rear_Leg02]
21 1162.777710 -0.029802 0.005960 5.610590 -4.209959 -134.973129 1162.777710
22 1162.777710 -0.029802 0.005960 4.928518 -3.676756 -130.858551 1162.777710
23 1162.777710 -0.029802 0.005960 4.214171 -3.121035 -129.420959 1162.777710
[Rear_Leg03]
21 607.192505 -0.013351 -0.073195 0.010073 -0.005890 76.987823 607.192505
22 607.192505 -0.013351 -0.073195 0.010071 -0.005894 77.028290 607.192505
23 607.192505 -0.013351 -0.073195 0.010069 -0.005897 77.068748 607.192505
[Rear_Leg04]
21 995.874512 -0.020504 -0.011921 -0.043092 -0.017543 89.853622 995.874573
22 995.874512 -0.020504 -0.011921 -0.043151 -0.017398 90.239861 995.874573
23 995.874512 -0.020504 -0.011921 -0.043174 -0.017342 90.389725 995.874573
[Rear_Foot]
21 3096.176270 -0.067472 -0.041425 -24.479923 72.839119 128.207474 3096.176270
22 3096.176270 -0.067472 -0.041425 -21.263580 72.788712 131.214462 3096.176270
23 3096.176270 -0.067472 -0.041425 -18.117168 72.832779 135.181061 3096.176270
[planeAlignerCenter]
21 1.143341 -39.848362 -760.998779 0.000009 0.000003 -179.999985 762.042175
22 1.141281 -21.735109 -786.152405 0.000009 0.000003 -179.999985 786.453674
23 1.140671 -2.422865 -807.624878 0.000009 0.000003 -179.999985 807.629272
[Rear_Toe1_01]
21 0.653352 83.966492 -371.173737 0.066387 22.298235 90.035316 380.553192
22 0.653352 83.966492 -371.173737 0.068826 24.490232 90.033951 380.553192
23 0.653352 83.966492 -371.173737 0.071252 26.682220 90.032646 380.553192
[Rear_Toe2_01]
21 178.200760 -294.826019 -362.060547 -0.470147 49.500107 -72.772644 499.765686
22 178.200760 -294.826019 -362.060547 -0.288146 51.045181 -72.379471 499.765686
23 178.200760 -294.826019 -362.060547 -0.082442 52.588818 -71.964668 499.765686
[Rear_Toe3_01]
21 -153.359680 -308.780914 -362.060852 0.405220 49.499332 -109.368858 499.952881
22 -153.359680 -308.780914 -362.060852 0.204119 51.039745 -109.807816 499.952881
23 -153.359680 -308.780914 -362.060852 -0.023297 52.578506 -110.270775 499.952881
[planeLockWeightCenter]
21 999.999878 0.000297 0.076243 -0.011814 -0.004373 -0.000015 999.999878
22 999.999878 0.000285 0.076233 -0.011814 -0.004373 -0.000015 999.999878
23 999.999878 0.000272 0.076223 -0.011814 -0.004373 -0.000015 999.999878
[Rear_Toe1_02]
21 379.707825 0.194073 0.000477 -0.000767 -33.624729 0.000838 379.707855
22 379.707825 0.194073 0.000477 -0.000767 -33.624729 0.000838 379.707855
23 379.707825 0.194073 0.000477 -0.000767 -33.624729 0.000838 379.707855
[Rear_Toe1_03]
21 500.129700 0.165701 0.000119 -0.035415 88.227455 -0.038912 500.129761
22 500.129700 0.165701 0.000119 0.005921 83.187103 0.004168 500.129761
23 500.129700 0.165701 0.000119 0.011366 78.146317 0.011366 500.129761
[Rear_Toe2_02]
21 340.494507 0.000238 -0.000954 0.001185 -74.016121 0.001185 340.494507
22 340.494507 0.000238 -0.000954 0.001184 -74.621727 0.001184 340.494507
23 340.494507 0.000238 -0.000954 0.001183 -75.227364 0.001183 340.494507
[Rear_Toe2_03]
21 433.103577 0.000000 0.000238 0.010092 76.643127 0.010092 433.103546
22 433.103577 0.000000 0.000238 0.010671 77.371208 0.010671 433.103546
23 433.103577 0.000000 0.000238 0.011708 78.493347 0.011708 433.103546
[Rear_Toe3_02]
21 340.494141 -0.000358 -0.000477 0.001185 -74.003738 0.001185 340.494171
22 340.494141 -0.000358 -0.000477 0.001184 -74.592003 0.001184 340.494171
23 340.494141 -0.000358 -0.000477 0.001184 -75.180283 0.001184 340.494171
[Rear_Toe3_03]
21 433.103577 0.001431 -0.000238 0.010077 76.624054 0.010077 433.103546
22 433.103577 0.001431 -0.000238 0.010623 77.314178 0.010623 433.103546
23 433.103577 0.001431 -0.000238 0.011618 78.403458 0.011618 433.103546
[Back_Bone]
21 1312.175781 -701.934692 0.000954 0.763396 -3.650662 -85.498573 1488.125488
22 1312.175781 -701.934692 0.000954 1.139223 -3.630697 -85.173935 1488.125488
23 1312.175781 -701.934692 0.000954 1.515148 -3.612855 -84.849152 1488.125488
[Head]
21 1406.159424 809.709290 0.001431 -9.094200 3.440505 4.648328 1622.625488
22 1406.159424 809.709290 0.001431 -8.656639 3.349496 4.469385 1622.625488
23 1406.159424 809.709290 0.001431 -8.218812 3.259850 4.289756 1622.625488
[Motor_Bone]
21 1158.364380 -417.834747 0.000477 -3.495549 0.584007 -105.401466 1231.419434
22 1158.364380 -417.834747 0.000477 0.251848 -0.541806 -106.527901 1231.419434
23 1158.364380 -417.834747 0.000477 2.270580 -1.149515 -107.133400 1231.419434
[Ping_Mechanism]
21 1232.271973 -427.131012 80.897049 0.000103 -0.000053 82.120995 1306.705688
22 1241.600098 -429.046631 87.845444 0.000103 -0.000053 82.120995 1316.574585
23 1246.931030 -430.210571 90.363762 0.000103 -0.000053 82.120995 1322.151245
[BN_LookIK]
21 193.241119 1380.371704 -0.002861 0.000000 89.965736 -31.038179 1393.832153
22 193.241119 1380.371704 -0.002861 0.000000 89.965736 -31.038179 1393.832153
23 193.241119 1380.371704 -0.002861 0.000000 89.965736 -31.038179 1393.832153
[bottomMouth]
21 -435.092926 615.759399 -0.000954 -0.000022 0.000016 73.527184 753.966492
22 -435.092926 615.759399 -0.000954 -0.000022 0.000016 73.527184 753.966492
23 -435.092926 615.759399 -0.000954 -0.000022 0.000016 73.527184 753.966492
[L_Mouth01]
21 554.440979 7.658243 838.222046 150.204178 23.759130 109.605339 1005.027161
22 554.440979 7.658243 838.222046 150.204178 23.759130 109.605339 1005.027161
23 554.440979 7.658243 838.222046 150.204178 23.759130 109.605339 1005.027161
[L_mouthFront]
21 551.629089 934.514771 339.150421 0.000081 2.804060 79.119301 1136.941284
22 551.629089 934.514771 339.150421 0.000081 2.804060 79.119301 1136.941284
23 551.629089 934.514771 339.150421 0.000081 2.804060 79.119301 1136.941284
[mouthGun]
21 55.332661 1627.420898 0.000000 0.000023 0.000009 -11.038128 1628.361328
22 55.332661 1627.420898 0.000000 0.000023 0.000009 -11.038128 1628.361328
23 55.332661 1627.420898 0.000000 0.000023 0.000009 -11.038128 1628.361328
[R_Mouth01]
21 554.442383 7.659197 -838.223938 29.795891 -23.759109 109.605331 1005.029541
22 554.442383 7.659197 -838.223938 29.795891 -23.759109 109.605331 1005.029541
23 554.442383 7.659197 -838.223938 29.795891 -23.759109 109.605331 1005.029541
[R_mouthFront]
21 551.629089 934.514282 -339.151367 0.000029 -2.803930 79.119133 1136.941162
22 551.629089 934.514282 -339.151367 0.000029 -2.803930 79.119133 1136.941162
23 551.629089 934.514282 -339.151367 0.000029 -2.803930 79.119133 1136.941162
[TopMouth]
21 461.269867 -56.106091 -0.008583 -0.000059 -0.000268 92.025169 464.669525
22 461.269867 -56.106091 -0.008583 -0.000059 -0.000268 92.025169 464.669525
23 461.269867 -56.106091 -0.008583 -0.000059 -0.000268 92.025169 464.669525
[weapon_bone]
21 -987.239868 1448.372803 0.001431 0.000000 89.965736 -31.038221 1752.833740
22 -987.239868 1448.372803 0.001431 0.000000 89.965736 -31.038221 1752.833740
23 -987.239868 1448.372803 0.001431 0.000000 89.965736 -31.038221 1752.833740
